<svg id="svg" version="1.1" xmlns="http://www.w3.org/2000/svg" xmlns:xlink="http://www.w3.org/1999/xlink" width="400" height="400" viewBox="0, 0, 400,400"><g id="svgg"><path id="path0" d="M132.667 245.167 L 132.667 264.333 135.833 264.333 L 139.000 264.333 139.000 245.167 L 139.000 226.000 135.833 226.000 L 132.667 226.000 132.667 245.167 M265.833 227.113 C 261.483 228.554,259.333 231.513,259.333 236.061 L 259.333 237.667 257.333 237.667 L 255.333 237.667 255.333 239.310 C 255.333 241.509,255.841 242.006,258.500 242.408 C 259.149 242.506,259.169 242.799,259.255 253.421 L 259.342 264.333 262.505 264.333 L 265.667 264.333 265.667 253.333 L 265.667 242.333 269.000 242.333 L 272.333 242.333 272.333 240.000 L 272.333 237.667 268.802 237.667 L 265.271 237.667 265.493 235.917 C 265.867 232.984,267.244 231.685,270.000 231.666 C 270.825 231.661,271.712 231.523,271.970 231.359 C 272.610 230.954,272.893 227.513,272.316 227.156 C 271.550 226.682,267.220 226.654,265.833 227.113 M178.796 229.652 C 177.911 230.019,177.868 230.142,177.149 234.248 C 176.493 237.994,176.817 237.636,173.583 238.192 L 172.333 238.408 172.333 240.168 C 172.333 242.164,172.531 242.333,174.861 242.333 L 176.333 242.333 176.333 250.959 C 176.333 260.567,176.436 261.143,178.475 262.933 C 180.979 265.132,186.457 265.170,189.322 263.009 L 190.137 262.394 189.485 261.174 C 188.293 258.944,187.790 258.586,186.669 259.165 C 183.145 260.988,182.667 259.932,182.667 250.333 L 182.667 242.333 188.000 242.333 L 193.333 242.333 193.335 250.583 C 193.337 259.864,193.508 260.920,195.299 262.710 C 197.406 264.817,201.747 265.257,205.092 263.703 C 207.561 262.556,207.538 262.621,206.207 260.541 C 204.894 258.489,204.873 258.477,203.667 259.167 C 200.243 261.124,199.667 259.851,199.667 250.333 L 199.667 242.333 203.167 242.333 L 206.667 242.333 206.667 240.000 L 206.667 237.667 203.167 237.667 L 199.667 237.667 199.667 233.500 L 199.667 229.333 198.188 229.333 C 195.316 229.333,195.189 229.481,194.339 233.807 L 193.580 237.667 188.134 237.667 L 182.687 237.667 182.594 233.583 L 182.500 229.500 181.000 229.430 C 180.175 229.391,179.183 229.491,178.796 229.652 M114.333 237.883 C 113.508 238.167,112.052 238.985,111.098 239.700 C 108.980 241.286,109.107 241.288,108.833 239.662 C 108.553 238.006,107.962 237.667,105.355 237.667 L 103.333 237.667 103.333 255.333 L 103.333 273.000 106.500 273.000 L 109.667 273.000 109.667 267.662 L 109.667 262.324 110.917 263.143 C 117.699 267.584,126.165 262.466,127.325 253.222 C 128.660 242.591,122.335 235.123,114.333 237.883 M153.333 237.770 C 140.235 241.562,140.794 261.532,154.078 264.381 C 165.096 266.744,173.326 255.964,169.001 244.836 C 166.855 239.313,159.484 235.989,153.333 237.770 M218.310 237.768 C 209.475 240.274,206.207 252.599,212.329 260.328 C 216.279 265.315,225.893 266.102,231.401 261.889 C 233.224 260.494,233.238 260.353,231.715 258.638 L 230.411 257.168 228.622 257.955 C 225.005 259.547,224.230 259.738,222.073 259.571 C 218.515 259.295,216.406 257.283,215.698 253.490 L 215.419 252.000 223.976 252.000 C 233.767 252.000,233.333 252.134,233.333 249.107 C 233.333 241.016,226.101 235.557,218.310 237.768 M248.302 238.104 C 247.494 238.528,246.316 239.569,245.683 240.416 C 244.376 242.167,244.000 242.161,244.000 240.388 C 244.000 238.216,243.323 237.667,240.648 237.667 L 238.333 237.667 238.333 251.000 L 238.333 264.333 241.500 264.333 L 244.667 264.333 244.667 256.065 L 244.667 247.797 245.622 246.291 C 246.914 244.253,248.414 243.569,251.265 243.718 C 253.826 243.852,253.909 243.741,253.967 240.075 C 254.013 237.179,251.639 236.353,248.302 238.104 M273.104 237.917 C 273.183 238.054,275.610 243.605,278.497 250.252 L 283.747 262.337 281.237 267.668 L 278.728 273.000 281.657 273.000 C 285.366 273.000,284.186 274.933,292.710 254.893 L 299.966 237.833 297.319 237.737 C 293.551 237.599,293.865 237.200,290.137 246.869 C 288.320 251.583,286.780 255.153,286.715 254.803 C 286.453 253.394,280.220 238.471,279.731 238.083 C 279.162 237.632,272.850 237.473,273.104 237.917 M225.254 242.874 C 226.299 243.635,227.667 246.109,227.667 247.237 L 227.667 248.000 221.667 248.000 C 218.367 248.000,215.667 247.872,215.667 247.716 C 215.667 243.498,221.835 240.383,225.254 242.874 M118.005 242.956 C 120.404 244.242,121.577 249.007,120.674 253.795 C 119.766 258.608,116.161 260.857,112.085 259.154 C 109.622 258.125,109.667 258.271,109.667 251.310 L 109.667 245.056 111.002 243.999 C 113.211 242.249,115.931 241.844,118.005 242.956 M159.866 242.968 C 166.028 245.767,164.442 258.889,157.860 259.568 C 153.045 260.065,150.524 257.120,150.524 251.000 C 150.524 245.276,152.716 242.348,157.000 242.348 C 157.825 242.348,159.115 242.627,159.866 242.968 " stroke="none" fill="#e1e1e1" fill-rule="evenodd"></path><path id="path1" d="M189.667 58.536 C 189.025 58.609,187.000 58.825,185.167 59.016 C 136.283 64.108,93.850 94.043,72.027 138.833 C 52.078 179.777,54.097 231.831,77.148 270.820 C 78.978 273.916,79.020 273.183,76.833 276.304 C 75.825 277.743,75.000 279.014,75.000 279.127 C 75.000 279.241,76.688 279.341,78.750 279.350 L 82.500 279.366 85.000 282.899 C 100.131 304.285,123.529 322.432,148.503 332.151 C 158.790 336.154,176.468 340.667,181.865 340.667 L 182.667 340.667 182.667 310.000 L 182.667 279.333 200.000 279.333 L 217.333 279.333 217.333 310.000 L 217.333 340.667 218.135 340.667 C 223.532 340.667,241.210 336.154,251.497 332.151 C 276.471 322.432,299.869 304.285,315.000 282.899 L 317.500 279.366 321.413 279.350 L 325.326 279.333 323.306 276.400 L 321.287 273.466 322.829 270.859 C 345.904 231.829,347.932 179.796,327.973 138.833 C 306.312 94.374,266.230 65.761,216.333 59.136 C 212.390 58.612,192.866 58.173,189.667 58.536 M217.333 180.833 L 217.333 220.667 200.000 220.667 L 182.667 220.667 182.667 180.833 L 182.667 141.000 200.000 141.000 L 217.333 141.000 217.333 180.833 M146.667 210.000 L 146.667 220.667 129.167 220.667 L 111.667 220.667 111.667 210.000 L 111.667 199.333 129.167 199.333 L 146.667 199.333 146.667 210.000 M139.333 245.167 L 139.333 264.333 135.833 264.333 L 132.333 264.333 132.333 245.167 L 132.333 226.000 135.833 226.000 L 139.333 226.000 139.333 245.167 M272.838 227.060 C 272.963 227.185,272.937 228.235,272.782 229.393 L 272.500 231.500 270.333 231.767 C 267.014 232.175,265.667 233.539,265.667 236.489 L 265.667 237.667 272.822 237.667 C 279.900 237.667,279.981 237.675,280.380 238.417 C 280.602 238.829,282.177 242.604,283.880 246.804 C 286.801 254.012,286.996 254.387,287.338 253.471 C 290.267 245.632,293.143 238.411,293.470 238.071 C 293.764 237.765,294.797 237.669,297.061 237.737 L 300.239 237.833 292.955 254.963 C 288.949 264.384,285.502 272.297,285.295 272.546 C 284.936 272.979,278.667 273.255,278.667 272.838 C 278.667 272.749,279.724 270.386,281.016 267.588 C 282.308 264.790,283.306 262.275,283.234 262.000 C 283.162 261.725,280.793 256.182,277.968 249.682 L 272.833 237.865 272.735 240.099 L 272.636 242.333 269.318 242.333 L 266.000 242.333 266.000 253.333 L 266.000 264.333 262.500 264.333 L 259.000 264.333 259.000 253.504 L 259.000 242.675 257.674 242.462 C 255.656 242.140,255.251 241.686,255.074 239.550 L 254.917 237.667 256.910 237.667 L 258.903 237.667 259.095 235.379 C 259.431 231.372,261.504 228.394,264.795 227.191 C 266.188 226.681,272.361 226.581,272.838 227.060 M182.667 233.500 L 182.667 237.667 187.972 237.667 L 193.278 237.667 193.612 236.083 C 193.795 235.213,194.129 233.552,194.354 232.392 C 194.891 229.625,195.225 229.333,197.857 229.333 L 200.000 229.333 200.000 233.500 L 200.000 237.667 203.500 237.667 L 207.000 237.667 207.000 240.000 L 207.000 242.333 203.500 242.333 L 200.000 242.333 200.000 250.139 C 200.000 259.780,200.227 260.416,203.223 259.164 C 205.005 258.420,205.210 258.506,206.516 260.547 C 207.461 262.025,207.624 262.492,207.276 262.727 C 203.474 265.292,197.935 265.386,195.142 262.933 C 193.262 261.283,193.000 259.757,193.000 250.439 L 193.000 242.333 187.833 242.333 L 182.667 242.333 182.667 249.812 C 182.667 259.154,183.200 260.613,186.088 259.173 C 187.701 258.368,188.157 258.543,189.317 260.410 C 191.063 263.218,188.791 264.755,183.141 264.589 C 176.793 264.402,176.000 262.887,176.000 250.935 L 176.000 242.333 174.202 242.333 C 172.168 242.333,172.000 242.142,172.000 239.829 C 172.000 238.232,172.049 238.196,174.707 237.821 L 176.247 237.604 176.937 233.943 C 177.793 229.410,177.852 229.333,180.541 229.333 L 182.667 229.333 182.667 233.500 M122.039 238.264 C 128.696 241.742,129.828 255.139,123.999 261.463 C 120.993 264.724,115.419 265.734,111.583 263.712 L 109.667 262.702 109.667 267.851 L 109.667 273.000 106.333 273.000 L 103.000 273.000 103.000 255.320 L 103.000 237.640 105.750 237.737 L 108.500 237.833 108.942 239.231 L 109.385 240.629 111.047 239.434 C 114.393 237.031,118.783 236.563,122.039 238.264 M163.040 238.388 C 173.626 243.299,172.513 260.979,161.415 264.206 C 149.726 267.604,140.254 256.882,144.660 245.239 C 147.233 238.440,156.061 235.150,163.040 238.388 M226.554 238.049 C 230.551 239.544,233.211 243.364,233.571 248.126 C 233.882 252.244,234.465 252.000,224.315 252.000 L 215.654 252.000 215.857 252.917 C 217.227 259.103,221.348 261.105,227.138 258.396 C 230.137 256.992,230.687 257.029,232.141 258.727 C 233.592 260.422,233.590 260.390,232.250 261.524 C 227.804 265.284,219.358 265.815,214.559 262.637 C 206.722 257.445,207.272 242.925,215.464 238.765 C 218.795 237.074,223.190 236.790,226.554 238.049 M253.583 237.543 C 254.402 237.763,254.539 239.138,254.059 242.333 L 253.833 243.833 251.333 243.862 C 245.626 243.926,245.000 245.137,245.000 256.113 L 245.000 264.333 241.500 264.333 L 238.000 264.333 238.000 251.000 L 238.000 237.667 240.626 237.667 C 243.647 237.667,243.899 237.840,244.213 240.126 L 244.426 241.684 245.243 240.483 C 246.984 237.921,250.443 236.702,253.583 237.543 M220.425 242.313 C 218.260 242.848,216.586 244.656,216.126 246.955 L 215.917 248.000 221.669 248.000 L 227.421 248.000 227.235 246.612 C 226.820 243.520,223.648 241.517,220.425 242.313 M114.119 242.648 C 110.228 243.588,109.667 244.707,109.667 251.516 C 109.667 257.703,109.715 257.869,111.833 258.911 C 116.921 261.415,120.934 257.279,120.609 249.869 C 120.364 244.301,118.029 241.703,114.119 242.648 M155.374 242.660 C 148.726 244.272,149.167 258.383,155.898 259.442 C 160.590 260.179,163.176 257.168,163.147 251.000 C 163.115 244.500,160.290 241.468,155.374 242.660 M146.667 305.148 L 146.667 330.962 144.083 329.785 C 132.924 324.700,124.842 320.003,115.917 313.414 L 111.667 310.276 111.667 294.805 L 111.667 279.333 129.167 279.333 L 146.667 279.333 146.667 305.148 M288.333 294.803 L 288.333 310.272 286.250 311.907 C 278.064 318.328,268.082 324.302,257.750 328.963 L 253.333 330.955 253.333 305.144 L 253.333 279.333 270.833 279.333 L 288.333 279.333 288.333 294.803 M188.167 341.387 C 189.083 341.509,194.408 341.608,200.000 341.608 C 205.592 341.608,210.917 341.509,211.833 341.387 C 212.750 341.266,207.425 341.167,200.000 341.167 C 192.575 341.167,187.250 341.266,188.167 341.387 " stroke="none" fill="#141414" fill-rule="evenodd"></path><path id="path2" d="M206.779 240.000 C 206.779 241.375,206.838 241.938,206.909 241.250 C 206.981 240.563,206.981 239.438,206.909 238.750 C 206.838 238.063,206.779 238.625,206.779 240.000 M238.152 251.000 C 238.152 258.425,238.196 261.462,238.250 257.750 C 238.303 254.038,238.303 247.963,238.250 244.250 C 238.196 240.538,238.152 243.575,238.152 251.000 M193.144 250.333 C 193.144 254.825,193.191 256.662,193.249 254.417 C 193.307 252.171,193.307 248.496,193.249 246.250 C 193.191 244.004,193.144 245.842,193.144 250.333 M265.816 253.333 C 265.816 259.475,265.861 261.987,265.916 258.917 C 265.971 255.846,265.971 250.821,265.916 247.750 C 265.861 244.679,265.816 247.192,265.816 253.333 M233.424 249.333 C 233.424 250.158,233.489 250.496,233.569 250.083 C 233.648 249.671,233.648 248.996,233.569 248.583 C 233.489 248.171,233.424 248.508,233.424 249.333 M120.757 250.667 C 120.757 251.492,120.822 251.829,120.902 251.417 C 120.981 251.004,120.981 250.329,120.902 249.917 C 120.822 249.504,120.757 249.842,120.757 250.667 " stroke="none" fill="#7c7c7c" fill-rule="evenodd"></path><path id="path3" d="M139.156 245.167 C 139.156 255.800,139.198 260.198,139.250 254.940 C 139.301 249.683,139.301 240.983,139.250 235.607 C 139.198 230.232,139.156 234.533,139.156 245.167 M272.744 228.000 C 272.744 228.642,272.813 228.904,272.896 228.583 C 272.980 228.262,272.980 227.737,272.896 227.417 C 272.813 227.096,272.744 227.358,272.744 228.000 M199.796 233.500 C 199.797 235.883,199.850 236.815,199.914 235.569 C 199.978 234.324,199.978 232.374,199.913 231.236 C 199.848 230.098,199.796 231.117,199.796 233.500 M259.100 236.000 C 259.100 237.008,259.162 237.421,259.239 236.917 C 259.315 236.412,259.315 235.588,259.239 235.083 C 259.162 234.579,259.100 234.992,259.100 236.000 M255.095 239.167 C 255.098 240.083,255.163 240.419,255.239 239.912 C 255.316 239.405,255.314 238.655,255.235 238.245 C 255.156 237.835,255.093 238.250,255.095 239.167 M147.146 241.083 L 146.167 242.167 147.250 241.188 C 148.260 240.275,148.487 240.000,148.229 240.000 C 148.172 240.000,147.684 240.487,147.146 241.083 M199.810 250.000 C 199.810 254.308,199.858 256.071,199.916 253.917 C 199.974 251.762,199.974 248.237,199.916 246.083 C 199.858 243.929,199.810 245.692,199.810 250.000 M259.149 253.500 C 259.149 259.550,259.194 262.072,259.249 259.105 C 259.304 256.137,259.305 251.187,259.250 248.105 C 259.194 245.022,259.149 247.450,259.149 253.500 M244.811 256.167 C 244.811 260.750,244.858 262.671,244.916 260.436 C 244.973 258.201,244.973 254.451,244.916 252.103 C 244.859 249.755,244.811 251.583,244.811 256.167 M146.333 260.104 C 146.333 260.162,146.821 260.649,147.417 261.188 L 148.500 262.167 147.521 261.083 C 146.608 260.074,146.333 259.847,146.333 260.104 M232.362 261.127 L 231.557 262.167 232.511 261.260 C 233.035 260.761,233.398 260.294,233.316 260.221 C 233.234 260.148,232.805 260.556,232.362 261.127 " stroke="none" fill="#5a5a5a" fill-rule="evenodd"></path><path id="path4" d="M132.489 245.167 C 132.489 255.800,132.532 260.198,132.583 254.940 C 132.635 249.683,132.635 240.983,132.583 235.607 C 132.532 230.232,132.489 234.533,132.489 245.167 M103.155 255.333 C 103.155 265.142,103.198 269.154,103.250 264.250 C 103.302 259.346,103.302 251.321,103.250 246.417 C 103.198 241.512,103.155 245.525,103.155 255.333 M253.960 238.740 C 254.114 239.665,254.161 239.712,254.266 239.045 C 254.334 238.611,254.252 238.119,254.084 237.951 C 253.899 237.766,253.851 238.077,253.960 238.740 M272.445 240.000 C 272.445 241.375,272.504 241.938,272.576 241.250 C 272.648 240.563,272.648 239.438,272.576 238.750 C 272.504 238.063,272.445 238.625,272.445 240.000 M172.095 239.833 C 172.098 240.750,172.163 241.085,172.239 240.579 C 172.316 240.072,172.314 239.322,172.235 238.912 C 172.156 238.502,172.093 238.917,172.095 239.833 M176.145 250.500 C 176.144 255.083,176.191 257.005,176.249 254.769 C 176.306 252.534,176.307 248.784,176.249 246.436 C 176.192 244.088,176.145 245.917,176.145 250.500 M209.107 250.667 C 209.107 251.858,209.167 252.346,209.241 251.750 C 209.315 251.154,209.315 250.179,209.241 249.583 C 209.167 248.987,209.107 249.475,209.107 250.667 M150.433 251.000 C 150.433 252.008,150.496 252.421,150.572 251.917 C 150.648 251.412,150.648 250.588,150.572 250.083 C 150.496 249.579,150.433 249.992,150.433 251.000 M163.429 251.167 C 163.431 252.083,163.496 252.419,163.573 251.912 C 163.649 251.405,163.647 250.655,163.568 250.245 C 163.489 249.835,163.426 250.250,163.429 251.167 M170.091 251.000 C 170.091 251.825,170.156 252.162,170.235 251.750 C 170.315 251.338,170.315 250.662,170.235 250.250 C 170.156 249.838,170.091 250.175,170.091 251.000 M143.744 251.000 C 143.744 251.642,143.813 251.904,143.896 251.583 C 143.980 251.262,143.980 250.737,143.896 250.417 C 143.813 250.096,143.744 250.358,143.744 251.000 " stroke="none" fill="#848484" fill-rule="evenodd"></path></g></svg>