<?xml version="1.0" standalone="no"?>
<!DOCTYPE svg PUBLIC "-//W3C//DTD SVG 20010904//EN"
 "http://www.w3.org/TR/2001/REC-SVG-20010904/DTD/svg10.dtd">
<svg version="1.0" xmlns="http://www.w3.org/2000/svg"
 width="924.000000pt" height="726.000000pt" viewBox="0 0 924.000000 726.000000"
 preserveAspectRatio="xMidYMid meet">
<metadata>
Created by potrace 1.10, written by Peter Selinger 2001-2011
</metadata>
<g transform="translate(0.000000,726.000000) scale(0.100000,-0.100000)"
fill="#af6464" stroke="none">
<path d="M4875 6845 c-135 -19 -233 -40 -400 -86 -223 -61 -269 -78 -505 -192
-100 -48 -343 -193 -374 -223 -11 -12 -39 -32 -61 -46 -89 -57 -287 -242 -423
-396 -69 -78 -212 -267 -212 -279 0 -3 -6 -14 -14 -22 -7 -9 -37 -61 -66 -116
-202 -378 -282 -609 -370 -1060 -17 -88 -38 -191 -46 -230 -9 -38 -17 -79 -18
-90 -1 -11 -8 -30 -14 -42 -7 -12 -17 -78 -22 -145 -6 -68 -14 -166 -20 -218
-5 -52 -10 -213 -10 -357 0 -256 -1 -263 -20 -263 -24 0 -23 16 -21 -345 3
-409 18 -555 80 -796 81 -312 133 -411 240 -456 20 -9 72 -26 116 -39 44 -14
103 -40 130 -58 28 -19 78 -48 112 -65 33 -17 63 -34 65 -39 18 -44 259 -125
454 -151 58 -8 107 -9 174 -1 104 12 112 14 103 35 -3 10 1 15 15 15 58 0 172
195 172 297 1 26 7 73 14 103 8 35 12 111 11 210 -1 131 1 161 16 191 77 156
89 291 65 689 -9 157 -21 305 -26 330 -5 25 -9 71 -10 104 0 32 -7 118 -15
190 -9 72 -22 187 -30 256 -8 69 -15 149 -15 177 0 53 -21 277 -41 432 -35
277 -120 361 -366 361 -128 0 -194 -26 -237 -92 -18 -28 -20 -28 -120 -28
-118 0 -122 -2 -228 -107 -69 -67 -136 -156 -212 -281 -21 -35 -41 -60 -45
-57 -3 4 -9 43 -13 88 -3 45 -11 105 -17 132 -12 63 -13 267 -1 360 5 39 22
100 38 135 16 36 31 79 35 95 9 50 46 127 57 120 12 -7 3 -52 -16 -80 -8 -11
-14 -29 -14 -42 0 -12 -4 -25 -10 -28 -5 -3 -10 -18 -10 -33 0 -15 -7 -38 -16
-50 -10 -15 -14 -39 -12 -74 l3 -53 50 100 c66 133 163 305 186 330 10 11 51
66 91 122 228 316 468 566 643 669 23 13 73 31 111 40 38 9 177 42 309 74 548
132 698 156 990 154 275 -2 538 -40 755 -109 308 -98 679 -346 963 -645 112
-118 288 -324 307 -360 7 -13 41 -58 75 -100 85 -104 224 -287 246 -324 10
-17 25 -58 34 -91 36 -131 65 -251 65 -272 0 -13 4 -23 8 -23 12 0 52 57 52
73 0 7 11 24 25 37 22 21 25 21 31 5 4 -9 1 -38 -6 -64 -6 -25 -13 -71 -15
-102 -4 -64 -37 -139 -65 -146 -26 -7 -36 -58 -17 -86 12 -18 12 -48 4 -182
-5 -88 -10 -189 -11 -225 -3 -77 -12 -132 -31 -180 -8 -19 -22 -61 -30 -93
-20 -69 -116 -274 -158 -337 -42 -62 -170 -193 -302 -309 -60 -53 -111 -99
-113 -103 -4 -8 -32 -11 -32 -4 0 3 7 38 15 78 24 110 21 379 -4 483 -19 77
-22 82 -83 137 -34 32 -76 63 -91 69 -25 11 -28 16 -23 43 4 23 -2 44 -23 81
-63 109 -157 190 -256 221 -48 16 -55 15 -106 -1 -131 -42 -235 -131 -545
-465 -43 -47 -159 -169 -259 -271 -99 -102 -216 -230 -260 -285 -44 -54 -88
-108 -99 -119 -10 -11 -52 -65 -94 -120 -42 -55 -79 -102 -82 -105 -3 -3 -41
-58 -84 -124 -125 -190 -186 -325 -186 -414 0 -19 19 -73 41 -122 l41 -89 -31
-80 c-66 -175 -69 -465 -6 -596 66 -136 132 -218 230 -285 32 -22 77 -57 165
-131 14 -11 37 -23 52 -26 15 -3 33 -12 39 -19 6 -8 20 -14 30 -14 10 0 21 -4
24 -10 3 -5 34 -18 68 -29 145 -46 395 -134 437 -154 42 -21 60 -22 300 -24
l256 -2 39 36 c22 20 59 45 83 55 27 12 47 29 53 45 6 17 14 23 25 19 16 -6
64 40 112 109 15 21 45 56 67 77 66 61 69 64 103 106 19 22 39 39 47 36 15 -6
65 51 65 76 0 29 26 83 58 118 16 18 38 49 48 70 29 57 149 235 173 256 11 11
21 23 21 27 0 5 13 28 30 51 16 24 32 60 35 82 2 21 15 52 27 70 13 17 32 58
43 91 24 76 81 227 104 280 10 22 24 58 31 80 7 22 30 67 52 101 21 34 38 70
38 81 0 11 22 84 48 164 27 79 57 170 67 202 10 32 25 62 32 66 8 4 16 18 18
32 11 65 42 197 52 219 12 28 33 111 38 152 2 15 8 36 14 46 5 10 11 47 12 83
2 60 20 186 52 359 17 92 16 445 -1 477 -14 26 -15 48 -6 343 8 299 -16 542
-77 760 -11 41 -27 98 -34 125 -48 175 -74 243 -173 445 -184 377 -476 729
-813 980 -96 72 -359 240 -374 240 -3 0 -46 20 -97 44 -234 112 -457 180 -763
232 -130 22 -597 28 -730 9z m332 -65 c6 0 9 -9 6 -20 -4 -15 -14 -20 -40 -20
-36 0 -73 15 -73 30 0 10 46 19 75 14 11 -2 25 -4 32 -4z m-167 -20 c0 -17
-22 -22 -93 -21 -40 0 -85 -5 -100 -11 -21 -8 -31 -8 -40 1 -18 18 9 31 68 32
28 0 70 4 95 8 47 7 70 4 70 -9z m286 12 c6 -4 13 -15 17 -24 9 -24 34 -23 48
3 9 18 17 21 56 16 25 -2 52 -12 61 -21 14 -14 18 -14 33 0 14 12 21 13 45 2
16 -6 36 -18 45 -25 12 -10 23 -11 48 -2 24 9 35 9 44 0 6 -6 18 -11 27 -11 9
0 25 -9 35 -20 20 -22 51 -27 57 -8 8 22 82 -14 86 -41 3 -20 8 -22 36 -17
l32 6 -4 -40 c-2 -23 -7 -40 -11 -38 -42 21 -80 54 -85 73 -8 33 -54 45 -72
20 -18 -24 -62 -12 -74 20 -11 28 -26 31 -55 11 -11 -7 -37 -16 -58 -20 -38
-7 -39 -7 -35 21 2 23 -1 29 -21 31 -21 3 -23 1 -17 -23 6 -25 5 -27 -16 -21
-13 3 -38 6 -55 6 -29 0 -33 3 -33 25 0 31 -26 44 -43 21 -15 -20 -62 -13 -75
11 -5 8 -26 15 -49 16 -27 1 -45 7 -52 19 -10 16 -7 18 31 18 24 0 48 -4 54
-8z m-561 -42 c3 -5 3 -10 -2 -11 -4 0 -28 -2 -52 -4 -64 -5 -34 16 36 24 6 0
15 -3 18 -9z m975 -100 c0 -5 -9 -10 -20 -10 -11 0 -20 5 -20 10 0 6 9 10 20
10 11 0 20 -4 20 -10z m300 -20 c0 -5 14 -16 30 -25 37 -19 40 -45 6 -45 -14
0 -28 -5 -31 -10 -4 -7 -13 -6 -27 1 l-21 11 24 19 c19 14 22 20 12 30 -16 16
-17 29 -3 29 6 0 10 -4 10 -10z m-1750 -15 c-32 -18 -40 -18 -40 0 0 10 10 15
33 15 l32 -1 -25 -14z m1876 -112 c-6 -6 -46 20 -46 30 0 4 11 0 25 -9 14 -9
24 -19 21 -21z m-2142 -11 c-30 -28 -66 -49 -96 -56 -48 -11 -31 10 35 42 71
36 89 40 61 14z m2361 -32 c0 -22 -29 -18 -33 3 -3 14 1 18 15 15 10 -2 18
-10 18 -18z m-2521 -38 c2 -4 -22 -22 -55 -39 -68 -37 -78 -27 -17 17 41 30
63 37 72 22z m2541 -32 c-11 -17 -23 -1 -18 21 5 19 7 19 15 5 5 -9 6 -21 3
-26z m-2697 -55 c2 -15 -13 -31 -55 -61 -53 -38 -152 -118 -261 -212 -23 -20
-88 -89 -143 -152 -55 -63 -117 -135 -139 -160 -35 -40 -150 -212 -150 -224 0
-3 -14 -26 -32 -53 -31 -45 -158 -294 -158 -310 -1 -13 -40 -56 -46 -51 -9 10
37 130 97 258 78 163 177 326 207 339 16 8 22 17 17 30 -3 11 1 24 11 32 10 8
42 46 73 84 68 86 298 313 391 388 146 116 182 133 188 92z m2986 -99 c9 -35
7 -36 -29 -15 -33 20 -43 38 -29 52 11 11 52 -15 58 -37z m106 -16 c7 -14 17
-19 29 -15 17 5 69 -43 92 -86 5 -11 16 -16 25 -12 15 5 73 -43 74 -61 0 -6
10 -20 22 -33 18 -19 20 -26 9 -32 -7 -5 -11 -17 -9 -27 4 -25 58 -33 58 -9 0
11 11 4 36 -20 27 -27 34 -42 30 -59 -7 -28 3 -40 21 -25 15 13 37 -1 55 -35
10 -18 12 -28 17 -73 0 -7 9 -13 19 -13 26 0 55 -35 58 -68 1 -15 5 -35 9 -44
5 -13 2 -18 -9 -18 -11 0 -16 9 -16 29 0 16 -3 36 -6 45 -7 18 -59 22 -69 5
-12 -18 -34 23 -35 62 0 29 -5 38 -22 42 -12 4 -28 1 -35 -5 -10 -8 -13 -7
-13 5 0 8 -7 20 -15 27 -8 7 -15 23 -15 35 0 38 -11 55 -35 55 -30 0 -52 22
-60 60 -5 24 -12 30 -34 30 -28 0 -59 26 -80 67 -6 13 -23 26 -36 29 -30 7
-30 9 -5 42 13 16 17 29 11 35 -15 15 -41 0 -41 -23 0 -27 -26 -25 -45 4 -9
13 -26 26 -38 30 -17 4 -19 8 -9 18 6 6 12 22 12 35 0 30 35 31 50 3z m-3490
-547 c-11 -64 -27 -94 -90 -163 l-50 -55 1 70 2 69 66 77 c40 46 69 72 72 65
4 -6 3 -34 -1 -63z m4153 -213 c6 0 7 -3 4 -6 -12 -12 -57 26 -57 49 0 20 3
18 21 -10 12 -18 26 -33 32 -33z m51 -76 c9 -23 7 -54 -3 -54 -7 0 -31 51 -31
66 0 12 29 1 34 -12z m224 -504 c3 -30 2 -32 -12 -21 -19 16 -22 65 -3 59 6
-3 13 -20 15 -38z m82 -503 c0 -37 -3 -48 -10 -37 -13 20 -13 103 0 95 6 -3
10 -30 10 -58z m-3 -279 c-2 -13 -4 -5 -4 17 -1 22 1 32 4 23 2 -10 2 -28 0
-40z m-4189 -182 c8 -15 15 -42 17 -59 1 -18 8 -44 14 -59 6 -15 8 -34 5 -43
-3 -8 2 -38 11 -66 15 -43 16 -58 6 -85 -9 -26 -9 -37 1 -53 15 -24 12 -27
-28 -35 -35 -8 -67 14 -58 38 3 8 -2 28 -10 45 -9 17 -16 55 -16 86 0 30 -5
64 -12 75 -10 15 -9 24 2 45 10 19 11 31 4 43 -8 13 -6 28 8 60 21 48 36 50
56 8z m-323 0 c19 -8 41 -28 50 -46 35 -68 63 -531 39 -647 -7 -38 -31 -27
-38 18 -9 56 -24 83 -39 71 -7 -5 -31 -12 -55 -14 -49 -4 -46 -9 -68 124 -16
101 -31 430 -20 471 9 36 72 47 131 23z m-649 -239 c18 7 21 -2 39 -126 20
-136 20 -350 1 -376 -28 -38 -51 85 -74 380 -8 112 -6 143 10 127 6 -6 17 -8
24 -5z m3354 -738 c0 -5 -14 -24 -31 -42 -31 -33 -69 -97 -69 -119 -1 -7 -21
-29 -45 -48 -25 -19 -45 -43 -45 -53 0 -9 -12 -23 -27 -29 -16 -7 -38 -23 -51
-36 -24 -25 -60 -26 -53 -1 2 8 6 32 9 54 4 32 14 48 53 83 27 24 49 48 49 54
0 20 82 103 123 125 45 24 87 30 87 12z m263 -243 c-1 -16 -20 -56 -43 -89
-22 -33 -40 -64 -40 -69 0 -13 20 -9 21 5 1 6 4 1 8 -13 4 -14 16 -30 28 -35
20 -11 20 -12 -20 -66 -23 -30 -52 -66 -64 -79 -20 -20 -23 -21 -29 -7 -3 10
-13 17 -21 17 -9 0 -21 7 -27 16 -12 15 -46 10 -46 -7 0 -5 -7 -9 -15 -9 -8 0
-15 -4 -15 -9 0 -5 -22 -24 -50 -42 -27 -18 -50 -36 -50 -40 0 -4 11 -16 23
-26 40 -31 49 -58 27 -78 -19 -17 -50 -15 -50 5 0 5 -6 10 -14 10 -8 0 -18 9
-21 20 -8 24 -18 25 -51 4 -13 -9 -27 -14 -30 -12 -18 19 188 285 354 456 63
65 86 83 104 80 19 -2 23 -9 21 -32z m433 -595 c-17 -32 -303 -330 -347 -362
-48 -34 -40 -5 17 65 92 111 316 326 341 326 2 0 -3 -13 -11 -29z m-809 -17
c3 -9 1 -20 -4 -25 -6 -6 -16 4 -26 26 -17 35 -17 36 4 25 11 -6 23 -18 26
-26z"/>
<path d="M6940 6036 c0 -25 12 -46 25 -46 19 0 27 17 20 40 -7 23 -45 28 -45
6z"/>
</g>
</svg>
